<?xml version="1.0" encoding="UTF-8" standalone="no"?>
<svg
   width="305"
   height="160"
   viewBox="0 0 305 160"
   fill="none"
   version="1.1"
   id="svg4"
   sodipodi:docname="n8n_pink+white_logo.svg"
   inkscape:version="1.4.2 (f4327f4, 2025-05-13)"
   xmlns:inkscape="http://www.inkscape.org/namespaces/inkscape"
   xmlns:sodipodi="http://sodipodi.sourceforge.net/DTD/sodipodi-0.dtd"
   xmlns="http://www.w3.org/2000/svg"
   xmlns:svg="http://www.w3.org/2000/svg">
  <sodipodi:namedview
     id="namedview4"
     pagecolor="#ffffff"
     bordercolor="#000000"
     borderopacity="0.25"
     inkscape:showpageshadow="2"
     inkscape:pageopacity="0.0"
     inkscape:pagecheckerboard="0"
     inkscape:deskcolor="#d1d1d1"
     inkscape:zoom="3.7326389"
     inkscape:cx="288"
     inkscape:cy="79.970233"
     inkscape:window-width="3840"
     inkscape:window-height="2054"
     inkscape:window-x="-11"
     inkscape:window-y="-11"
     inkscape:window-maximized="1"
     inkscape:current-layer="svg4" />
  <g
     clip-path="url(#clip0_4630_46)"
     id="g4">
    <path
       fill-rule="evenodd"
       clip-rule="evenodd"
       d="M 272,64 C 257.089,64 244.561,53.8018 241.008,40 h -36.677 c -7.821,0 -14.496,5.6546 -15.782,13.3696 l -1.315,7.8912 c -1.249,7.4923 -5.039,14.013 -10.399,18.7392 5.36,4.7262 9.15,11.2469 10.399,18.7392 l 1.315,7.8908 c 1.286,7.715 7.961,13.37 15.782,13.37 h 4.677 c 3.553,-13.802 16.081,-24 30.992,-24 17.673,0 32,14.327 32,32 0,17.673 -14.327,32 -32,32 -14.911,0 -27.44,-10.198 -30.992,-24 h -4.677 c -15.643,0 -28.993,-11.309 -31.565,-26.739 l -1.315,-7.891 C 170.165,93.6546 163.49,88 155.669,88 H 142.992 C 139.44,101.802 126.911,112 112,112 97.0893,112 84.5605,101.802 81.0081,88 H 62.9919 C 59.4395,101.802 46.9107,112 32,112 14.3269,112 0,97.6731 0,80 0,62.3269 14.3269,48 32,48 46.9107,48 59.4395,58.1982 62.9919,72 H 81.0081 C 84.5605,58.1982 97.0893,48 112,48 c 14.911,0 27.44,10.1982 30.992,24 h 12.677 c 7.821,0 14.496,-5.6546 15.782,-13.3696 l 1.315,-7.8912 C 175.338,35.3092 188.688,24 204.331,24 h 36.677 C 244.56,10.1982 257.089,0 272,0 c 17.673,0 32,14.3269 32,32 0,17.6731 -14.327,32 -32,32 z m 0,-16 c 8.837,0 16,-7.1634 16,-16 0,-8.8366 -7.163,-16 -16,-16 -8.837,0 -16,7.1634 -16,16 0,8.8366 7.163,16 16,16 z M 32,96 c 8.8366,0 16,-7.1634 16,-16 0,-8.8366 -7.1634,-16 -16,-16 -8.8366,0 -16,7.1634 -16,16 0,8.8366 7.1634,16 16,16 z m 96,-16 c 0,8.8366 -7.163,16 -16,16 -8.837,0 -16,-7.1634 -16,-16 0,-8.8366 7.163,-16 16,-16 8.837,0 16,7.1634 16,16 z m 128,48 c 0,8.837 -7.163,16 -16,16 -8.837,0 -16,-7.163 -16,-16 0,-8.837 7.163,-16 16,-16 8.837,0 16,7.163 16,16 z"
       fill="#ea4b71"
       id="path1" />
    <path
       fill-rule="evenodd"
       clip-rule="evenodd"
       d="M 480.023,69.1834 V 68.421 c 5.582,-2.7958 11.165,-7.6248 11.165,-17.1559 0,-13.7246 -11.292,-21.9848 -26.898,-21.9848 -15.986,0 -27.405,8.7685 -27.405,22.239 0,9.1498 5.329,14.1059 11.165,16.9017 v 0.7624 c -6.471,2.2875 -14.21,9.1498 -14.21,20.587 0,13.8516 11.419,23.5096 30.323,23.5096 18.905,0 29.943,-9.658 29.943,-23.5096 0,-11.4372 -7.612,-18.1724 -14.083,-20.587 z m -15.86,-28.2117 c 6.344,0 11.039,4.0665 11.039,10.9288 0,6.8624 -4.822,10.9289 -11.039,10.9289 -6.217,0 -11.419,-4.0665 -11.419,-10.9289 0,-6.9894 4.949,-10.9288 11.419,-10.9288 z m 0,60.1093 c -7.359,0 -13.322,-4.7024 -13.322,-12.7084 0,-7.2436 4.948,-12.7081 13.195,-12.7081 8.12,0 13.069,5.3374 13.069,12.9622 0,7.7519 -5.71,12.4543 -12.942,12.4543 z"
       fill="#ffffff"
       id="path2" />
    <path
       d="m 513.68,112.009 h 16.24 V 77.5707 c 0,-11.3101 6.851,-16.2662 14.591,-16.2662 7.612,0 13.576,5.0832 13.576,15.5038 v 35.2007 h 16.24 V 73.5042 c 0,-16.6475 -9.643,-26.3056 -24.741,-26.3056 -9.516,0 -14.845,3.8124 -18.651,8.7685 h -1.015 l -1.396,-7.4977 H 513.68 Z"
       fill="#ffffff"
       id="path3" />
    <path
       d="M 369.92,112.009 H 353.68 V 48.4694 h 14.844 l 1.396,7.4977 h 1.015 c 3.806,-4.9561 9.135,-8.7685 18.651,-8.7685 15.098,0 24.741,9.6581 24.741,26.3056 v 38.5048 h -16.24 V 76.8083 c 0,-10.4206 -5.964,-15.5038 -13.576,-15.5038 -7.74,0 -14.591,4.9561 -14.591,16.2662 z"
       fill="#ffffff"
       id="path4" />
  </g>
  <defs
     id="defs4">
    <clipPath
       id="clip0_4630_46">
      <rect
         width="576"
         height="160"
         fill="#ffffff"
         id="rect4"
         x="0"
         y="0" />
    </clipPath>
  </defs>
</svg>
